<svg xmlns="http://www.w3.org/2000/svg" version="1.1" xmlns:xlink="http://www.w3.org/1999/xlink" xmlns:svgjs="http://svgjs.dev/svgjs" width="1000" height="1000" viewBox="0 0 1000 1000"><rect width="1000" height="1000" fill="#000000"></rect><g transform="matrix(0.7,0,0,0.7,150.0000000000001,106.25)"><svg viewBox="0 0 320 360" data-background-color="#ffffff" preserveAspectRatio="xMidYMid meet" height="1125" width="1000" xmlns="http://www.w3.org/2000/svg" xmlns:xlink="http://www.w3.org/1999/xlink"><g id="tight-bounds" transform="matrix(1,0,0,1,0,0)"><svg viewBox="0 0 320 360" height="360" width="320"><g><svg></svg></g><g><svg viewBox="0 0 320 360" height="360" width="320"><g><path xmlns="http://www.w3.org/2000/svg" d="M20.961 227.22l3.726 4.658-1.863-6.056c-0.466-2.795-3.726 0.466-1.863 1.398M25.153 224.425c1.397 2.329 2.795 4.658 2.795 6.987 0 3.261 2.795 4.658 5.123 5.589-3.261-3.726-5.124-13.974-7.918-12.576M204.017 26.929c7.918 0 15.371-0.932 23.756 0.931 20.495 5.124 37.729 15.371 49.374 29.811l32.606 52.169c1.397 13.042 4.192 27.482 3.726 43.319 3.261 0 2.795-4.658 6.521-5.59-3.726 9.316-5.59 20.961-6.521 34.469-2.329-7.453 0-18.632 0.466-24.687-3.261 5.124-5.124 1.397-5.124-0.932 0.466-3.726-1.397-3.261-2.795-4.658-5.124-4.658-8.384-9.782-12.11-17.7 2.329-6.055 2.795-14.905-4.658-19.563-2.329-1.397-5.124-3.726-6.521-7.453-1.863-5.124-5.124-11.179-4.193-19.097 0.466-2.329-6.987 5.124-11.179 1.863-18.166-12.576-36.332-27.016-58.224-39.127-11.645 0-20.029-4.192-24.221-9.316-3.726-4.658-0.932-10.713 4.658-11.179 3.261 0 6.987-0.932 9.782 0.932 0.466-1.863 2.329-4.192 4.657-4.192M157.904 16.215l0.932 0.466c4.658 0.932 6.987 7.453 12.11 5.124 0 3.261 0.466 6.521-0.466 8.85-1.397 3.726-5.59 3.726-8.85 3.726-31.208-1.863-49.374 11.179-68.471 22.358-5.124 3.261-10.713 5.59-14.906 9.782-20.029 18.632-41.921 35.866-47.045 70.335l-4.192 38.195c-0.466 4.192-5.124 8.384-4.192 13.508l3.26 22.824c-3.261-3.261-5.124 0.932-4.192 2.795 0.466 1.397 2.329 6.055 5.124 1.863 3.726 6.987 7.453 20.495 12.576 26.55 15.837 18.632 36.332 35.4 53.101 52.169 4.192-0.932 7.453-0.932 8.384-3.727 1.397 2.795-1.397 5.59-3.726 6.056 7.453 4.658 15.837 8.85 27.016 9.781 14.44 0.932 27.948 3.261 40.524 6.522 6.521-1.863 13.042-2.795 20.029-3.261 2.329 0 3.726-3.726 6.521-4.658l0.466-4.658c2.795 4.192 2.329-1.397 0.466-4.192 3.261 2.795 4.192 5.124 5.589 6.987 0-1.397 3.726-6.521 3.727-0.466l0.931-6.055c1.397-0.932 1.863 5.124 3.261 0.931 1.397-4.192 4.192-0.932 6.987-2.329-0.932 1.863-0.466 5.59 2.794 3.261l3.727-3.261c2.329 5.59 6.055 3.261 7.918 2.329 20.495-13.042 40.99-28.413 60.553-43.784l-0.466 6.055 2.329-7.453c2.329 2.329 4.192 0.466 5.124-0.931 2.795-4.658 6.521-9.316 12.577-13.508-7.453 20.029-16.303 35.866-27.482 48.908l-4.658 5.59c0 3.261-0.932 7.453-4.658 7.918-1.863 0.466-5.59-0.932-8.384 1.863-1.397 1.863 3.261 5.59-0.466 2.795-3.261-2.329-6.521 0-10.248 0.932-2.795 0.932 1.863 3.726 2.795 5.589 0.932 1.863 1.863 3.726 1.398 6.056l-5.124-5.59c-6.055 3.261-9.782 9.316-14.906 13.974-2.329 1.863-1.397 5.124-1.397 7.918-3.261 0-6.987-0.932-8.85 0.932-1.397 1.863-0.932 4.658-0.932 7.453-4.658-0.466-5.124-7.453-9.315-6.056-4.192 0.932-8.85 1.397-12.577 3.727 2.795 5.59-4.658 2.329-3.726 3.26-6.987-4.192-13.042-7.453-20.495-4.658-15.837-5.124-35.4-2.795-49.84-0.931 0-2.329 0.466-4.658-0.466-5.124-0.932 2.329-3.726 1.397-3.26 1.397-8.85-6.055-17.7-9.782-27.016-14.905-8.384 0.932-16.303-3.261-18.632-5.59-6.521-6.055-13.974-2.795-20.029-4.192-13.042-3.261-17.7-16.769-19.098-26.084-0.932-4.658-4.658-6.521-6.055-6.056-6.055-19.563-15.371-37.263-22.824-55.429-1.863-4.658-1.397-9.316-1.397-14.44 2.329 0.932 4.658 0.466 4.192-2.794-2.329-15.371-7.918-27.016-13.974-38.195 3.261-15.837 3.726-34.469 11.179-48.443 6.521-12.576 18.632-19.098 27.016-29.811 2.795-3.726 2.795-8.85 5.59-12.11 9.316-9.316 18.632-19.098 28.879-27.482 4.658-3.726 10.247 0 17.234-1.397 2.329-8.384 11.645-15.837 20.495-13.508 3.726 0.932 11.179-8.85 13.508-9.782 3.726-1.397 1.863 3.726 1.863 6.987 8.85-6.987 20.961-10.713 32.14-14.906" fill="#ffffff" fill-rule="nonzero" stroke="none" stroke-width="1" stroke-linecap="butt" stroke-linejoin="miter" stroke-miterlimit="10" stroke-dasharray="" stroke-dashoffset="0" font-family="none" font-weight="none" font-size="none" text-anchor="none" style="mix-blend-mode: normal" data-fill-palette-color="tertiary"></path></g><g transform="matrix(1,0,0,1,64,159.23501922331593)"><svg viewBox="0 0 192 41.52996155336817" height="41.52996155336817" width="192"><g><svg viewBox="0 0 192 41.52996155336817" height="41.52996155336817" width="192"><g><svg viewBox="0 0 192 41.52996155336817" height="41.52996155336817" width="192"><g transform="matrix(1,0,0,1,0,25.101476538245812)"><svg viewBox="0 0 192 16.428485015122355" height="16.428485015122355" width="192"><g id="textblocktransform"><svg viewBox="0 0 192 16.428485015122355" height="16.428485015122355" width="192" id="textblock"><g><svg viewBox="0 0 192 16.428485015122355" height="16.428485015122355" width="192"><g transform="matrix(1,0,0,1,0,0)"><svg width="192" viewBox="3.640000104904175 -37.5 443.92999267578125 37.9900016784668" height="16.428485015122355" data-palette-color="#636365"><path d="M10.5 0L10.5-13.04 15.8-13.04Q18.7-13.04 21.04-13.87 23.39-14.7 25.05-16.19L25.05-16.19Q26.68-17.65 27.58-19.68 28.47-21.7 28.47-24.1L28.47-24.1Q28.47-26.66 27.58-28.76 26.68-30.86 25.05-32.37L25.05-32.37Q23.39-33.86 21.04-34.7 18.7-35.55 15.8-35.55L15.8-35.55 3.64-35.55 3.64 0 10.5 0ZM15.8-18.6L10.5-18.6 10.5-29.98 15.8-29.98Q17.26-29.98 18.33-29.52 19.41-29.05 20.14-28.25L20.14-28.25Q20.85-27.44 21.2-26.37 21.56-25.29 21.56-24.05L21.56-24.05Q21.56-22.97 21.2-21.98 20.85-21 20.14-20.24L20.14-20.24Q19.41-19.48 18.33-19.04 17.26-18.6 15.8-18.6L15.8-18.6ZM55.27-35.55L34.71-35.55 34.71-30 41.48-30 41.48-5.52 34.71-5.52 34.71 0 55.27 0 55.27-5.52 48.34-5.52 48.34-30 55.27-30 55.27-35.55ZM82.34-35.55L75.34-19.17 68.33-35.55 60.81-35.55 71.82-12.6 71.85 0 78.68 0 78.71-12.3 89.89-35.55 82.34-35.55ZM116.91-11.99L116.89-35.55 110.08-35.55 110.05-11.99Q110.03-10.25 109.68-8.94 109.34-7.62 108.66-6.74L108.66-6.74Q108.02-5.88 107.06-5.46 106.1-5.03 104.85-5.03L104.85-5.03Q103.7-5.03 102.82-5.43 101.95-5.83 101.34-6.64L101.34-6.64Q100.68-7.52 100.35-8.86 100.02-10.21 99.99-11.99L99.99-11.99 99.97-35.55 93.11-35.55 93.08-11.99Q93.08-9.01 93.93-6.68 94.77-4.35 96.31-2.76L96.31-2.76Q97.84-1.17 100-0.34 102.17 0.49 104.85 0.49L104.85 0.49Q107.71 0.49 109.94-0.34 112.18-1.17 113.74-2.78L113.74-2.78Q115.28-4.37 116.09-6.69 116.91-9.01 116.91-11.99L116.91-11.99ZM141.66-9.28L141.66-9.28Q141.66-8.33 141.27-7.53 140.88-6.74 140.15-6.18L140.15-6.18Q139.42-5.62 138.36-5.3 137.29-4.98 135.93-4.98L135.93-4.98Q134.39-4.98 133.11-5.32 131.83-5.66 130.92-6.4L130.92-6.4Q129.99-7.13 129.48-8.28 128.97-9.42 128.92-11.04L128.92-11.04 122.18-11.04Q122.18-8.28 123.24-6.23 124.31-4.17 126.14-2.66L126.14-2.66Q128.07-1.12 130.67-0.33 133.27 0.46 135.93 0.46L135.93 0.46Q138.64 0.46 140.93-0.18 143.23-0.83 144.89-2.1L144.89-2.1Q146.55-3.34 147.49-5.16 148.43-6.98 148.43-9.33L148.43-9.33Q148.43-12.04 147.18-14.11 145.94-16.19 143.84-17.75L143.84-17.75Q142.45-18.7 140.79-19.43 139.13-20.17 137.29-20.68L137.29-20.68Q135.59-21.14 134.23-21.68 132.88-22.22 131.92-22.88L131.92-22.88Q130.97-23.51 130.47-24.32 129.97-25.12 129.97-26.12L129.97-26.12Q129.97-27.08 130.35-27.89 130.73-28.71 131.46-29.32L131.46-29.32Q132.19-29.91 133.25-30.24 134.32-30.57 135.68-30.57L135.68-30.57Q137.17-30.57 138.28-30.16 139.39-29.76 140.15-29.05L140.15-29.05Q140.88-28.32 141.26-27.32 141.64-26.32 141.69-25.12L141.69-25.12 148.38-25.12Q148.38-27.51 147.45-29.52 146.52-31.52 144.86-32.98L144.86-32.98Q143.2-34.42 140.9-35.23 138.59-36.04 135.81-36.04L135.81-36.04Q133.12-36.04 130.82-35.34 128.53-34.64 126.85-33.35L126.85-33.35Q125.16-32.06 124.21-30.22 123.26-28.39 123.26-26.15L123.26-26.15Q123.26-24.19 123.98-22.53 124.7-20.87 126.11-19.51L126.11-19.51Q127.53-18.14 129.76-16.99 132-15.84 134.95-15.04L134.95-15.04Q136.86-14.53 138.14-13.93 139.42-13.33 140.22-12.62L140.22-12.62Q141.01-11.89 141.34-11.06 141.66-10.23 141.66-9.28ZM169.88 0L176.67 0 176.67-35.55 169.88-35.55 169.88-20.97 159.83-20.97 159.83-35.55 153.01-35.55 153.01 0 159.83 0 159.83-15.41 169.88-15.41 169.88 0ZM195.71-24.24L196.4-34.03 196.4-37.5 191.17-37.5 191.17-34.06 191.17-24.24 195.71-24.24ZM231.67-9.28L231.67-9.28Q231.67-8.33 231.28-7.53 230.89-6.74 230.16-6.18L230.16-6.18Q229.43-5.62 228.36-5.3 227.3-4.98 225.93-4.98L225.93-4.98Q224.4-4.98 223.11-5.32 221.83-5.66 220.93-6.4L220.93-6.4Q220-7.13 219.49-8.28 218.98-9.42 218.93-11.04L218.93-11.04 212.19-11.04Q212.19-8.28 213.25-6.23 214.31-4.17 216.14-2.66L216.14-2.66Q218.07-1.12 220.67-0.33 223.27 0.46 225.93 0.46L225.93 0.46Q228.64 0.46 230.94-0.18 233.23-0.83 234.89-2.1L234.89-2.1Q236.55-3.34 237.49-5.16 238.43-6.98 238.43-9.33L238.43-9.33Q238.43-12.04 237.19-14.11 235.94-16.19 233.84-17.75L233.84-17.75Q232.45-18.7 230.79-19.43 229.13-20.17 227.3-20.68L227.3-20.68Q225.59-21.14 224.24-21.68 222.88-22.22 221.93-22.88L221.93-22.88Q220.98-23.51 220.48-24.32 219.98-25.12 219.98-26.12L219.98-26.12Q219.98-27.08 220.36-27.89 220.73-28.71 221.47-29.32L221.47-29.32Q222.2-29.91 223.26-30.24 224.32-30.57 225.69-30.57L225.69-30.57Q227.18-30.57 228.29-30.16 229.4-29.76 230.16-29.05L230.16-29.05Q230.89-28.32 231.27-27.32 231.65-26.32 231.7-25.12L231.7-25.12 238.39-25.12Q238.39-27.51 237.46-29.52 236.53-31.52 234.87-32.98L234.87-32.98Q233.21-34.42 230.9-35.23 228.6-36.04 225.81-36.04L225.81-36.04Q223.13-36.04 220.83-35.34 218.54-34.64 216.85-33.35L216.85-33.35Q215.17-32.06 214.22-30.22 213.26-28.39 213.26-26.15L213.26-26.15Q213.26-24.19 213.98-22.53 214.7-20.87 216.12-19.51L216.12-19.51Q217.54-18.14 219.77-16.99 222-15.84 224.96-15.04L224.96-15.04Q226.86-14.53 228.14-13.93 229.43-13.33 230.23-12.62L230.23-12.62Q231.01-11.89 231.34-11.06 231.67-10.23 231.67-9.28ZM297.66-4.15L297.66-4.15 297.63-18.16 284.91-18.16 284.91-13.04 290.8-13.04 290.77-6.59Q290.5-6.27 289.98-5.99 289.46-5.71 288.77-5.49L288.77-5.49Q288.09-5.27 287.31-5.15 286.53-5.03 285.72-5.03L285.72-5.03Q284.4-5.05 283.36-5.46 282.33-5.86 281.54-6.64L281.54-6.64Q281.08-7.1 280.7-7.7 280.32-8.3 280.03-9.01L280.03-9.01Q279.57-10.23 279.31-11.82 279.05-13.4 279.05-15.33L279.05-15.33 279.05-20.21Q279.05-21.75 279.24-23.07 279.42-24.39 279.76-25.46L279.76-25.46Q280.2-26.86 280.87-27.88 281.54-28.91 282.37-29.54L282.37-29.54Q283.01-30 283.74-30.25 284.47-30.49 285.26-30.49L285.26-30.49Q286.7-30.49 287.73-30.11 288.77-29.74 289.46-28.98L289.46-28.98Q290.07-28.3 290.42-27.29 290.77-26.29 290.94-25L290.94-25 297.63-25Q297.37-27.56 296.5-29.61 295.63-31.67 294.09-33.11L294.09-33.11Q292.56-34.52 290.32-35.28 288.09-36.04 285.08-36.04L285.08-36.04Q283.13-36.04 281.37-35.5 279.62-34.96 278.13-33.91L278.13-33.91Q276.86-32.98 275.8-31.71 274.73-30.44 273.93-28.86L273.93-28.86Q273.07-27.08 272.61-24.89 272.15-22.71 272.15-20.17L272.15-20.17 272.15-15.33Q272.15-12.67 272.62-10.4 273.1-8.13 274.03-6.32L274.03-6.32Q274.83-4.69 275.99-3.42 277.15-2.15 278.57-1.27L278.57-1.27Q280.01-0.42 281.73 0.04 283.45 0.49 285.4 0.49L285.4 0.49Q287.65 0.49 289.6 0.07 291.55-0.34 293.14-1.03L293.14-1.03Q294.7-1.68 295.85-2.51 297-3.34 297.66-4.15ZM310.03-7.42L320.7-7.42 322.78 0 330 0 318.58-35.55 312.35-35.55 300.71 0 307.93 0 310.03-7.42ZM319.09-13.26L311.72-13.26 315.45-26.34 319.09-13.26ZM340.08-13.28L345.29-13.28 351.97 0 359.32 0 359.32-0.32 351.68-14.99Q353.15-15.65 354.33-16.55 355.51-17.46 356.37-18.68L356.37-18.68Q357.2-19.87 357.65-21.4 358.1-22.92 358.1-24.83L358.1-24.83Q358.1-27.47 357.19-29.47 356.27-31.47 354.59-32.81L354.59-32.81Q352.88-34.16 350.49-34.85 348.09-35.55 345.14-35.55L345.14-35.55 333.22-35.55 333.22 0 340.08 0 340.08-13.28ZM345.16-18.85L340.08-18.85 340.08-29.98 345.14-29.98Q346.55-29.98 347.65-29.64 348.75-29.3 349.51-28.66L349.51-28.66Q350.36-27.95 350.79-26.87 351.22-25.78 351.22-24.37L351.22-24.37Q351.22-23.19 350.89-22.24 350.56-21.29 349.92-20.61L349.92-20.61Q349.17-19.75 347.96-19.3 346.75-18.85 345.16-18.85L345.16-18.85ZM370.04-7.42L380.71-7.42 382.78 0 390.01 0 378.58-35.55 372.36-35.55 360.71 0 367.94 0 370.04-7.42ZM379.1-13.26L371.72-13.26 375.46-26.34 379.1-13.26ZM417.67-4.15L417.67-4.15 417.64-18.16 404.92-18.16 404.92-13.04 410.81-13.04 410.78-6.59Q410.51-6.27 409.99-5.99 409.46-5.71 408.78-5.49L408.78-5.49Q408.1-5.27 407.32-5.15 406.53-5.03 405.73-5.03L405.73-5.03Q404.41-5.05 403.37-5.46 402.34-5.86 401.55-6.64L401.55-6.64Q401.09-7.1 400.71-7.7 400.33-8.3 400.04-9.01L400.04-9.01Q399.58-10.23 399.32-11.82 399.06-13.4 399.06-15.33L399.06-15.33 399.06-20.21Q399.06-21.75 399.25-23.07 399.43-24.39 399.77-25.46L399.77-25.46Q400.21-26.86 400.88-27.88 401.55-28.91 402.38-29.54L402.38-29.54Q403.02-30 403.75-30.25 404.48-30.49 405.27-30.49L405.27-30.49Q406.71-30.49 407.74-30.11 408.78-29.74 409.46-28.98L409.46-28.98Q410.07-28.3 410.43-27.29 410.78-26.29 410.95-25L410.95-25 417.64-25Q417.37-27.56 416.51-29.61 415.64-31.67 414.1-33.11L414.1-33.11Q412.57-34.52 410.33-35.28 408.1-36.04 405.09-36.04L405.09-36.04Q403.14-36.04 401.38-35.5 399.63-34.96 398.14-33.91L398.14-33.91Q396.87-32.98 395.8-31.71 394.74-30.44 393.94-28.86L393.94-28.86Q393.08-27.08 392.62-24.89 392.16-22.71 392.16-20.17L392.16-20.17 392.16-15.33Q392.16-12.67 392.63-10.4 393.11-8.13 394.03-6.32L394.03-6.32Q394.84-4.69 396-3.42 397.16-2.15 398.58-1.27L398.58-1.27Q400.02-0.42 401.74 0.04 403.46 0.49 405.41 0.49L405.41 0.49Q407.66 0.49 409.61 0.07 411.56-0.34 413.15-1.03L413.15-1.03Q414.71-1.68 415.86-2.51 417.01-3.34 417.67-4.15ZM430.51-15.58L445.11-15.58 445.11-21 430.51-21 430.51-29.96 447.5-29.96 447.5-35.55 423.62-35.55 423.62 0 447.57 0 447.57-5.54 430.51-5.54 430.51-15.58Z" opacity="1" transform="matrix(1,0,0,1,0,0)" fill="#ffffff" class="undefined-text-0" data-fill-palette-color="primary" id="text-0"></path></svg></g></svg></g></svg></g></svg></g><g transform="matrix(1,0,0,1,66.47554326411718,0)"><svg viewBox="0 0 59.048913471765644 22.704166290899096" height="22.704166290899096" width="59.048913471765644"><g><svg version="1.0" xmlns="http://www.w3.org/2000/svg" xmlns:xlink="http://www.w3.org/1999/xlink" x="0" y="0" viewBox="0 0.00023700809106230736 100.00000762939453 38.449764251708984" enable-background="new 0 0 100 38.449" xml:space="preserve" width="59.048913471765644" height="22.704166290899096" class="icon-icon-0" data-fill-palette-color="accent" id="icon-0"><path d="M99.929 15.958c-0.053-0.283-0.157-0.619-0.364-1.056L80.803 0.005h-37.75c-0.874-0.054-1.348 0.359-1.763 0.841L28.672 13.487 1.078 18.071C0.694 18.406 0.309 18.735 0 19.599l0.059 9.493c0.598 1.521 1.006 1.324 1.459 1.536h5.312c0-12.905 19.225-12.856 19.225 0h49.021c0-12.933 19.08-12.906 19.08 0h4.354c0.731-0.067 1.142-0.713 1.49-1.47L99.929 15.958zM59.408 15.346H33.254c-0.995-0.393-1.13-0.988-0.716-1.713l9.403-9.278c0.212-0.18 0.379-0.428 0.747-0.374h16.72V15.346zM86.488 15.348H62.516V3.983h14.066c0.368-0.055 0.535 0.193 0.747 0.374l8.058 8.115C86.13 13.591 87.623 15.122 86.488 15.348z" fill="#ffffff" data-fill-palette-color="accent"></path><path d="M16.396 22.843c-4.31 0-7.804 3.493-7.804 7.803s3.494 7.804 7.804 7.804 7.804-3.494 7.804-7.804S20.705 22.843 16.396 22.843zM16.396 33.921c-1.819 0-3.294-1.475-3.294-3.293 0-1.819 1.475-3.294 3.294-3.294 1.818 0 3.293 1.475 3.293 3.294C19.688 32.446 18.214 33.921 16.396 33.921z" fill="#ffffff" data-fill-palette-color="accent"></path><path d="M84.615 22.839c-4.31 0-7.804 3.494-7.804 7.804s3.494 7.804 7.804 7.804 7.803-3.494 7.803-7.804S88.925 22.839 84.615 22.839zM84.615 33.921c-1.819 0-3.294-1.475-3.294-3.293 0-1.819 1.475-3.294 3.294-3.294 1.818 0 3.293 1.475 3.293 3.294C87.908 32.446 86.434 33.921 84.615 33.921z" fill="#ffffff" data-fill-palette-color="accent"></path></svg></g></svg></g><g></g></svg></g></svg></g></svg></g></svg></g><defs></defs></svg><rect width="320" height="360" fill="none" stroke="none" visibility="hidden"></rect></g></svg></g></svg>